<?xml version="1.0" encoding="UTF-8"?>
<svg viewBox="0 0 744.09 1052.4" xmlns="http://www.w3.org/2000/svg" id="ball">
 <g fill="none" stroke="#000">
  <path d="m278.08 655.01c-30.113-61.16-4.838-135.2 56.417-165.26 61.255-30.066 135.41-4.8304 165.52 56.33 30.113 61.16 4.838 135.2-56.417 165.26-61.2 30.039-135.27 4.8901-165.44-56.171" stroke-width="4.924"/>
  <g fill-rule="evenodd">
   <path d="m265.4 585.72z" stroke-width=".732"/>
   <g stroke-width="4.395">
    <path d="m266.66 588.19c19.446-47.327 235.47-0.82312 244.77 24.692"/>
    <path d="m418.85 479.55c104 36.627 55.802 231.28-41.852 243.22"/>
    <path d="m337.68 488.19c59.184 4.9385 98.077 93.831 161.07 61.731"/>
    <path d="m283.15 665.97c84.972 12.758 197.84-105.35 205.46 8.6423"/>
   </g>
  </g>
 </g>
</svg>
