<?xml version="1.0" encoding="utf-8"?>
<!-- Svg Vector Icons : http://www.onlinewebfonts.com/icon -->
<!DOCTYPE svg PUBLIC "-//W3C//DTD SVG 1.1//EN" "http://www.w3.org/Graphics/SVG/1.1/DTD/svg11.dtd">
<svg version="1.1" xmlns="http://www.w3.org/2000/svg" xmlns:xlink="http://www.w3.org/1999/xlink" x="0px" y="0px" viewBox="0 0 1000 1000" enable-background="new 0 0 1000 1000" xml:space="preserve">
<metadata> Svg Vector Icons : http://www.onlinewebfonts.com/icon </metadata>
<g><g transform="translate(0.000000,512.000000) scale(0.100000,-0.100000)"><path d="M243.4,4809.7c405.5-591,2363.9-3484.7,2369.7-3501.9c3.8-9.6-82.2-63.1-187.4-116.7c-411.2-206.6-506.8-363.4-571.9-935.2c-47.8-422.7-80.3-518.3-294.5-891.3c-133.9-229.5-204.6-401.6-221.9-539.3c-26.8-197,26.8-346.2,315.6-877.9c128.1-237.2,156.8-340.4,200.8-715.3c34.4-300.3,55.5-401.6,105.2-514.5c88-197,258.2-334.7,594.8-482c397.8-176,422.7-193.2,782.2-556.6c386.3-390.2,457.1-436.1,705.7-451.4c114.8-7.6,208.5,3.8,451.4,53.5c407.4,84.2,608.2,86.1,965.8,7.7c193.2-42.1,306-57.4,449.5-57.4c292.6,1.9,342.4,30.6,755.5,449.5l334.7,338.5l394,193.2c621.6,302.2,680.9,384.4,753.6,1027.1c17.2,147.3,44,319.4,59.3,382.5c30.6,112.9,135.8,342.4,225.7,483.9c93.7,149.2,185.5,351.9,214.2,478.1c53.6,227.6,5.8,415-198.9,768.9c-219.9,376.8-250.6,472.4-300.3,904.6c-66.9,571.9-162.6,728.7-571.9,933.3c-105.2,53.5-191.3,107.1-187.4,118.6c5.7,17.2,1960.4,2903.3,2369.7,3500l143.4,204.6h-392.1h-390.2L7974,3331.3c-629.2-927.6-1149.5-1681.1-1157.1-1679.2c-21,7.7-363.4,392.1-363.4,407.4c0,11.5,1658.2,2478.7,1887.7,2807.6l103.3,147.3h-390.1h-392.1l-925.7-1371.3L5809,2271.8l-304.1-63.1c-413.1-84.2-560.4-86.1-973.5-5.7l-325.1,61.2L3271,3639.2l-933.3,1375.1h-390.2h-390.2l141.5-204.6c76.5-114.8,529.8-778.4,1004.1-1476.5l862.6-1268L3382,1860.6c-101.4-110.9-191.3-204.6-198.9-208.5c-7.6-3.8-529.8,751.6-1157.1,1679.2L882.2,5014.4H492.1H100L243.4,4809.7z M5403.6,1196.9c1247-208.5,2144-1323.5,2077-2580.1c-61.2-1143.7-864.5-2067.5-2012-2316.1c-212.3-45.9-724.9-45.9-937.2,0c-679,147.3-1245.1,527.9-1608.5,1082.5C2177.1-1476.9,2483.1,39.8,3613.4,806.7c279.2,189.3,659.8,340.4,979.2,390.2C4826,1233.2,5185.5,1233.2,5403.6,1196.9z"/><path d="M4298.1,305.6c-367.2-162.6-483.9-221.8-483.9-246.7c0-44,132-652.2,143.4-665.6c5.7-3.8,153,55.5,327.1,133.9c176,78.4,327.1,145.4,334.7,147.3c9.6,3.8,17.2-571.9,17.2-1285.3v-1292.9h459h459v1711.7V519.8l-386.3-1.9h-388.2L4298.1,305.6z"/></g></g>
</svg>