<?xml version="1.0" encoding="UTF-8" standalone="no"?>
<svg
   xmlns:dc="http://purl.org/dc/elements/1.1/"
   xmlns:cc="http://creativecommons.org/ns#"
   xmlns:rdf="http://www.w3.org/1999/02/22-rdf-syntax-ns#"
   xmlns:svg="http://www.w3.org/2000/svg"
   xmlns="http://www.w3.org/2000/svg"
   xmlns:sodipodi="http://sodipodi.sourceforge.net/DTD/sodipodi-0.dtd"
   xmlns:inkscape="http://www.inkscape.org/namespaces/inkscape"
   viewBox="0 0 224.64314 465.37302"
   id="svg2"
   version="1.1"
   inkscape:version="0.91 r13725"
   sodipodi:docname="player3.svg">
  <metadata
     id="metadata12">
    <rdf:RDF>
      <cc:Work
         rdf:about="">
        <dc:format>image/svg+xml</dc:format>
        <dc:type
           rdf:resource="http://purl.org/dc/dcmitype/StillImage" />
      </cc:Work>
    </rdf:RDF>
  </metadata>
  <defs
     id="defs10" />
  <sodipodi:namedview
     pagecolor="#ffffff"
     bordercolor="#666666"
     borderopacity="1"
     objecttolerance="10"
     gridtolerance="10"
     guidetolerance="10"
     inkscape:pageopacity="0"
     inkscape:pageshadow="2"
     inkscape:window-width="1680"
     inkscape:window-height="1005"
     id="namedview8"
     showgrid="false"
     inkscape:zoom="0.50712008"
     inkscape:cx="-380.65832"
     inkscape:cy="232.68651"
     inkscape:window-x="0"
     inkscape:window-y="317"
     inkscape:window-maximized="1"
     inkscape:current-layer="g4" />
  <g
     transform="translate(-323.79 -294.86)"
     id="g4">
    <path
       d="m 364.29,348.08 c -36.699,-18.398 -13.961,-53.776 2.0017,-52.069 20.257,-5.2824 48.781,22.733 25.141,43.497 5.8929,6.6071 2.1429,6.4286 2.1429,6.4286 l -12.857,14.286 c 0,0 -10.947,36.517 -19.286,45 6.8133,9.9978 6.7625,16.066 7.1429,24.286 8.9666,5.3154 12.94,18.441 12.94,18.441 l 5.4184,-0.42585 c 0,0 -0.60968,-8.9654 0.84055,-16.8 0.56635,-11.118 4.329,-13.907 4.329,-13.907 0,0 2.3128,-3.7893 5.0433,-5.8802 19.398,-13.96 39.865,9.4658 32.143,24.286 -4.4395,8.8852 -9.1325,12.912 -10,14.286 -8.8224,6.5511 -5.5917,19.495 -5.5917,19.495 5.4545,0.42029 9.9985,-0.88017 13.157,4.2857 2.9838,4.0525 9.7536,11.758 11.851,19.913 0,0 2.8646,12.473 2.0129,24.877 10.007,9.879 17.056,29.791 17.056,29.791 l 20.087,45.209 c 6.4182,3.0069 10.658,8.2645 16.848,7.6588 0.42924,2.9343 1.9896,4.016 6.9758,2.9688 -7.7982,9.7512 5.0276,10.66 6.847,16.18 l -9.7945,-5.4221 6.894,8.2793 -9.2028,-5.1696 2.8608,11.219 -7.8571,-12.143 c -6.6319,-6.4094 -13.88,-6.3446 -19.881,-19.38 -15.06,-13.559 -28.356,-26.833 -32.684,-51.346 0,0 -13.139,-16.623 -13.864,-27.846 -6.6594,-6.2986 -7.3214,-4.4643 -12.143,0 -4.8216,4.4643 -7.1428,17.857 -7.1428,17.857 4.6718,10.018 4.1692,18.023 2.8571,25.714 l -0.71429,13.571 c 13.83,13.565 21.685,34.424 31.093,42.77 10.137,-8.5625 11.968,-6.8485 16.429,-5.7143 9.4577,3.342 12.071,10.269 14.621,17.23 15.549,-1.2864 19.602,5.787 28.571,9.2857 l 7.1429,0.71429 c 7.8734,-5.4164 14.483,-5.9596 20,-2.2857 4.9716,4.9468 9.6558,10.078 10,18 8.1242,6.0764 12.435,13.373 12.143,22.143 0.88443,16.985 -6.5716,18.893 -13.571,15.714 l -22.143,-26.429 c -2.9934,-1.3121 -4.1997,-0.58199 -9.2857,-4.2857 -2.7082,-2.9017 -1.9368,-4.0636 -2.1428,-5.7143 -9.6657,1.3356 -20.042,1.012 -30.714,0 -5.6164,3.2983 -4.4131,8.3015 -5,12.857 -8.7592,-0.61048 -16.51,-3.9098 -24.286,-7.1429 -20.164,5.4536 -39.396,-0.43386 -58.571,-5 -1.5728,2.5657 -3.1426,5.1335 -1.4286,10 3.7205,5.7708 4.9777,13.139 5.3355,19.246 10.69,5.2621 19.095,12.81 26.429,21.429 10.39,-0.9609 18.742,2.4469 26.807,6.4682 -8.6392,27.105 -11.237,19.657 -11.271,23.317 -1.2081,4.8637 -2.1808,10.982 -5.8719,15.969 -5.5117,10.615 -14.434,4.5184 -15,0.71429 -1.6089,-7.3922 -1.4478,-12.003 -0.71429,-15.714 -4.4274,-4.2149 -6.8205,-9.4469 -8.5714,-15 3.2759,-1.0061 3.2246,-2.6172 2.8572,-4.2857 -18.492,-15.612 -43.207,-22.802 -65,-35.714 -3.8398,-4.5452 -6.1912,-10.38 -5,-19.286 -2.1429,-0.0428 -4.2857,-0.58574 -6.4286,-4.2857 1.1888,-3.4978 2.8017,-5.5816 5,-5.7143 -0.29614,-8.3493 -2.1228,-15.551 0,-25.714 -1.6717,-1.8998 -3.8607,-3.2822 -4.2857,-6.4286 -0.35344,-5.4933 0.8437,-8.1956 2.1429,-10.714 -0.33457,-2.8571 0.1133,-5.7143 -1.4286,-8.5714 3.3113,-5 2.6802,-10 3.5714,-15 3.6087,-0.4265 5.8984,-2.6116 8.5714,-4.2857 4.1634,-43.993 11.737,-90.132 15.714,-127.14 0,0 -12.857,-27.5 -9.2857,-51.429 3.5713,-23.929 23.571,-44.286 23.571,-44.286 0,0 -9.4643,-7.5 -3.5714,-12.857 z"
       opacity=""
       id="path6"
       inkscape:connector-curvature="0"
       style="fill-rule:evenodd;stroke:#000000" />
  </g>
</svg>
