<?xml version="1.0" encoding="UTF-8"?>
<svg viewBox="0 0 744.09447 1052.362179" xmlns="http://www.w3.org/2000/svg">
 <path d="m352.15 206.08c-34.878 11.115 33.097-19.476 9.1378-5.1802-26.082 18.211-38.586 49.846-45.039 79.862-7.4659 40.411 2.9609 83.275 37.325 108.09 18.499 11.503 40.285 12.629 60.999 7.0961 5.5489-1.4822 21.465-8.1254 16.263-5.6924-44.493 20.808-17.037 7.4027-11.846 4.4844 6.9565-3.9108 8.6758-5.3083 15.26-9.8275 33.032-24.794 57.519-61.523 56.578-103.83-3.145-39.129-31.04-67.755-64.392-85.083-12.748-6.3741-26.46-9.9211-40.668-10.433l27.686-16.145c14.251 1.239 27.932 5.3047 40.599 12.023 33.784 18.54 62.115 48.099 65.589 88.14 1.3364 43.103-22.694 80.827-55.9 106.81-38.256 27.372-93.186 53.99-137.85 26.523-34.503-26.232-45.614-69.782-38.499-111.42 6.041-30.279 17.77-61.911 42.67-81.728 14.959-10.404 32.703-19.199 51.004-20.806l-28.921 17.104z"/>
 <path d="m324.56 407.09c-26.599 9.6954-71.606-9.306-71.5 38.298 0.0959 43.364-32.248 85.141-55.26 123.62-21.654 36.213-55.104 64.057-79.857 97.89-22.772 31.125 47.736 90.405 51.627 81.57 15.151-34.4 33.808-79.106 48.067-119.88 9.5681-27.358 63.154-106.44 75.285-50.42 8.412 38.844-4.8205 82.676-8.9471 122.44-7.3185 70.529 5.4622 143.16-17.139 212.22-29.987 91.625-58.81 185.43-83.061 277.55-7.0124 26.636 68.886 57.776 68.666 13.397-0.2274-45.986 25.902-91.662 40.057-137.15 17.673-56.797 42.502-111.71 55.384-169.69 8.8546-39.852 47.661-57.699 56.016-13.568 17.378 91.793 78.545 307.78 89.294 298.33 25.821-22.697 83.59-57.668 50.901-100.26-48.118-62.703-76.051-138.23-104.65-211.75-10.568-27.172-10.63-53.785-7.9347-83.804 5.296-58.99 2.6195-114.87 5.9931-175.09 2.6127-46.637 34.253-84.722 63.165-36.826 23.961 39.693 54.731 75.313 79.376 114.31 13.676 21.638 29.359 37.043 47.383 24.912 39.19-26.376 17.018-70.784-15.907-96.356-50.124-38.931-90.706-97.481-100.82-163.28-7.9683-51.83-100.02-33.969-99.96-46.462 0.06358-13.958 81.476-28.558 108 1.1632 32.953 36.921 34.191 91.011 64.385 131.89 28.339 38.364 74.505 60.21 96.921 100.14 24.413 43.484-37.916 78.686-59.606 115.16-26.357 44.322-57.555-41.795-75.425-66.653-32.525-45.244-74.968-103.33-72.98-34.911 1.5672 53.943-17.804 107.54-14.226 160.48 4.3242 63.969 46.995 119.67 64.729 180.84 12.825 44.235 77.802 80.644 54.863 123-17.818 32.904-44.045 68.79-73.997 86.516-39.666 23.476-51.814-51.71-63.353-84.157-27.211-76.518-35.727-134.85-57.431-211.92-5.2472-18.633-4.6414-47.168-20.607 5.3663-35.432 116.59-52.346 186.86-82.611 304.01-11.612 44.948-90.328 36.453-114.26 2.8845-29.426-41.268 16.605-91.167 27.026-135.43 19.882-84.445 57.436-166.4 65.381-253.08 7.886-86.044 11.82-157.26 13.431-238.96 0.34181-17.326-17.574 10.802-23.138 22.557-26.782 56.576-31.393 101.66-60.553 144.08-23.294 33.886-65.954-5.0334-87.348-28.631-32.052-35.354 0.40187-76.885 27.719-102.02 56.776-52.248 75.224-131.96 100.54-202.12 14.979-41.513 85.283-41.552 114.05-30.495 5.0781 1.952-11.3 7.9732-17.681 10.299z"/>
 <path d="m85.07 219.21c-12.455-7.48-60.403 10.818-22.542-3.5121-76.899 26.865-84.331 164.04 8.5808 177.28s133.23-134.54 44.243-171.88c-62.911-50.616 53.366-29.631 78.273 28.491s-17.05 144.57-97.587 157.46c-80.257 12.883-160.64-56.991-116.13-131.1 13.535-44.674 107.81-92.369 125.71-68.098l-20.549 11.353z"/>
 <path d="m137.06 387.93c28.273 22.327 132.12-10.732 110.5 42.675-38.699-15.649-122.57-4.1846-133.82-34.38 7.3055-4.0044 15.531-5.58 23.32-8.2945z"/>
 <path d="m8.8887 406.43c-58.762 7.1109-96.246 165.51-151.81 246.65-24.661 37.735 4.9453 87.13 28.04 86.471 10.397-0.29623 39.57-114.52 91.021-161.32 69.578-14.416 30.908 109.63 38.33 152.03-4.1676 67.01 18.082 135.62-12.057 199.41-17.688 51.363-48.106 122.49-70.664 185.51-19.736 55.131 37.909 92.014 53.925 85.277 16.502-6.9415 47.849-108.55 68.871-171.79 23.052-42.602 51.647-199.66 113.45-111.67 19.11 27.208 104.6 109.32 37.171 108.4-34.76-29.476-62.454-101.86-72.38-101.38-14.465 0.70428-62.951 128-80.213 198.37s-74.59 152.22-129.06 69.319c-67.027-68.345 24.702-156.2 37.156-230.54 36.943-78.058 15.89-163.13 21.267-245.27 16.594-42.032 4.0697-104.24-3.0129-101.82-8.7946 3.0013-26.433 77.738-58.259 130.72-72.889 68.911-135.88-73.522-75.615-125.63 47.5-64.404 56.521-148.78 106.57-211.04 5.8703-29.879 141.42-36.483 57.266-1.6854z"/>
 <path d="m263.43 884.54c-72.019 51.227-123.33-162.93-69.867-136.23 28.776 14.372 17.86 97.982 62.032 121.76 15.638 33.009 2.4699 12.051-1.299 18.089l9.1343-3.6165z"/>
 <path d="m160.93 591.37c-63.172-31.229 9.4815-150.87 51.112-73.375-16.949 72.373-24.46 0.10328-35.551 5.3172-22.345 43.731 25.816 88.512-15.561 68.058z"/>
 <path d="m675.11 249.99c-15.689-6.9272-71.911 6.3662-15.174-13.152-80.731 24.408-88.036 166.96 2.3984 181.16 70.801 8.784 112.43-88.476 59.983-142.37-59.383-52.686 93.804-8.8857 59.022 45.107 0.32377 92.2-127.16 156.22-196 89.317-70.871-72.574 21.574-200.27 111.72-180.99 22.764 10.521-14.251 20.039-21.948 20.928z"/>
 <path d="m604.64 404.83c10.766 21.932-77.437 42.628-85.027 23.376-7.6858-19.494 74.372-45.082 85.027-23.376z"/>
 <path d="m858.82 551.68c38.207 68.531 46.967 113.96 1.0026 157.84-45.395 14.576-47.227-20.569-90-44.166-46.825-27.995-18.642 123.65-17.284 213.06 1.2453 82.021 97.197 166.62 111.23 251.52-0.43669 60.021-113.25 145.64-124.34 47.538-17.323-89.469-91.075-243.74-103.34-244.29-30.173-1.3618-59.575 48.948-75.982 71.313-17.751 24.197-54.246 51.755-25.42-10.366 25.228-54.365 109.7-140.51 148.1-42.312 45.1 75.815 70.679 150.44 95.297 234.89 16.377 3.3602 16.731 5.421 37.203-8.3864 35.094-73.543-35.936-142.23-68.003-203.3-44.565-86.828-29.397-191.01-30.295-239.77-0.8819-47.932-2.0932-193.45 35.452-129.97 50.382 85.177 109.46 97.272 109.86 57.404 0.36414-36.216-23.198-134.49-79.984-191.33-11.542-29.67-105.92-67.357-42.274-66.293 16.44 1.7721 101.28 84.337 118.78 146.63z"/>
 <path d="m501.05 941.98c-42.4 36.474-25.725-8.2475 5.8646-37.761 55.817-52.148 12.795-201.26 50.453-221.25 15.382 46.314 3.9294 128.77-8.5391 194.44-9.4095 19.831-32.105 51.088-47.778 64.571z"/>
 <path d="m929.48 328.75c-89.155-52.3-129.7 93.935-40.95 122.23 74.824 8.7791 77.995 0.79664 92.592-8.9693 63.527-44.656-17.943-132.99-16.744-132.99 92.596-15.558 105.3 126.56 17.016 144.4-56.487 31.012-145.43 30.427-177.01-34.969-40.994-85.824 128.77-151.82 145.29-96.94l-12.386 3.5419-7.8018 3.7018z"/>
 <path d="m968.5 453.23c82.516 8.563 112.35 77.048 131.72 144.98 21.606 75.75 3.3869 177.22-57.483 157.68-40.448-12.985-31.78-102.83-46.269-100.27-20.915 3.7084-8.8386 87.084-8.195 152.42-12.82 57.405-9.4989 108.47 34.803 151.91 41.559 40.753 58.541 89.485 61.293 147.5 3.1159 65.683-124.91 137.55-114.39 29.501-7.0518-65.686-92.388-180.48-103.9-161.05-34.585 58.413-85.963 97.399-36.49 18.144 46.598-82.981 112.19 12.158 141.37 60.538 23.222 38.511 23.95 138.89 33.457 131.8 50.116-37.346 50.627-127.79 9.0965-184.1-38.889-51.134-94.902-111.46-59.56-179.42 28.137-69.195-19.663-188.45 41.153-198.6 40.084-6.6858 40.594 107.79 52.1 110.61 65.73 16.093 25.208-105.61 11.839-175.75-11.892-62.396-122.25-69.688-111.71-96.317l21.157-9.5844z"/>
 <path d="m810.8 867.01c-17.422 72.5-101.56 74.439-33.165 12.669 25.79-61.343 22.376-188.22 49.086-174.04 15.969 8.4989 1.378 106.2-15.921 161.37z"/>
 <path d="m-223.1 229.03c-60.008 53.418-21.923 181.27 65.143 171.4 35.127-8.4999-15.022 10.129 23.757-10.803 66.76-61.893-15.953-180.98-98.063-155.25 13.434-11.516-25.826-3.9846 28.871-18.811 84.091-23.661 169.69 90.394 107.46 158.91-45.853 55.959-154.84 62.534-185.01-12.938-27.674-60.753 20.107-137.19 79.864-155.94 28.526-3.4744 21.017 1.6516-22.028 23.427z"/>
 <path d="m-125.1 389.01c29.797-1.2571 127.45 28.776 57.99 38.597-17.967-2.4026-126.13-10.586-57.99-38.597z"/>
 <path d="m-224.48 389.22c-25.584 58.704-115.53-10.999-112.47 38.313-27.271 74.604-114.28 133.72-106.72 215.43 9.3397 29.55 76.718 90.979 41.301 104.04 11.263-61.688 41.116-127.27 77.593-180.64 60.808-47.173 31.25 76.025 35.803 107.81 2.606 102.74 13.965 209.57-18.905 308.3-23.984 51.886-104.17 113.58-44.227 168.92 11.432 19.161 30.1 35.692 42.979 28.234 46.036-26.658 33.264-145.66 61.731-219.67 51.46-78.435 100.64 50.232 142.88 77.51 31.497 22.142 47.019 73.704-7.2984 45.781-33.618-38.388-89.161-113.04-109.43-109.73-11.335 1.8548-9.3187 36.13-19.006 66.346-10.428 50.624-13.927 102.96-31.769 151.84-62.065 59.648-184.03-49.035-120.09-115.09 47.929-69.628 73.188-150.93 72.113-235.39 4.1388-91.531-5.346-149.99 0.30189-241.5 61.47-28.424-33.1 30.918-22.545 60.59-4.5894 59.092-75.704 135.05-108.85 49.781-55.108-50.131-16.963-127.35 19.786-176.15 44.747-51.425 64.819-171.5 156.56-141.86 14.407 9.8784 38.505 2.1212 50.256-2.8752z"/>
 <path d="m-23.138 980.69c-24.408 22.223-113.98-87.993-132.51-138.46-13.52-29.97 19.209-129.08 43.484-82.236-25.95 74.056 28.2 152.39 84.325 194.22 6.9501 5.1796 10.612 21.097 4.6993 26.481z"/>
 <path d="m-148.34 622.53c-24.83-31.893 7.5483-138.41 47.721-88.721-16.025 33.271 2.4383 89.823-47.721 88.721z"/>
 <path d="m845.14 447.96c10.766 21.932-42.285 39.226-49.875 19.975-7.6858-19.494 39.22-41.68 49.875-19.975z"/>
</svg>
