<?xml version="1.0" encoding="UTF-8"?>
<!-- Generator: Adobe Illustrator 12.0.0, SVG Export Plug-In . SVG Version: 6.00 Build 51448)  -->
<!DOCTYPE svg PUBLIC "-//W3C//DTD SVG 1.1//EN" "http://www.w3.org/Graphics/SVG/1.1/DTD/svg11.dtd">
<svg version="1.1" id="Ebene_1" xmlns="http://www.w3.org/2000/svg" xmlns:xlink="http://www.w3.org/1999/xlink" width="45.15" height="51.09" viewBox="0 0 45.15 51.09" overflow="visible" enable-background="new 0 0 45.15 51.09" xml:space="preserve">
<circle fill="none" stroke="#000000" stroke-width="3" cx="22.575" cy="22.574" r="21.075"/>
<g enable-background="new    ">
	<path d="M8.265,17.67v-2.438c2.29-0.222,3.886-0.594,4.791-1.115c0.904-0.521,1.58-1.753,2.026-3.697h2.496v25.062h-3.375V17.67   H8.265z"/>
</g>
<g enable-background="new    ">
	<path d="M35.222,14.147c1.123,2.076,1.685,4.92,1.685,8.531c0,3.424-0.509,6.256-1.527,8.496c-1.475,3.213-3.885,4.819-7.232,4.819   c-3.02,0-5.266-1.313-6.74-3.94c-1.229-2.192-1.843-5.136-1.843-8.83c0-2.861,0.369-5.318,1.106-7.37   c1.381-3.823,3.88-5.734,7.495-5.734C31.419,10.119,33.771,11.462,35.222,14.147z M32.042,30.94   c0.973-1.453,1.459-4.16,1.459-8.121c0-2.859-0.352-5.211-1.055-7.057s-2.068-2.769-4.096-2.769c-1.864,0-3.227,0.876-4.088,2.628   s-1.292,4.332-1.292,7.742c0,2.566,0.275,4.629,0.826,6.188c0.844,2.379,2.286,3.567,4.326,3.567   C29.762,33.119,31.069,32.394,32.042,30.94z"/>
</g>
</svg>